<?xml version="1.0" encoding="UTF-8" standalone="no"?>
<!-- Created with Inkscape (http://www.inkscape.org/) -->

<svg
   xmlns:dc="http://purl.org/dc/elements/1.1/"
   xmlns:cc="http://creativecommons.org/ns#"
   xmlns:rdf="http://www.w3.org/1999/02/22-rdf-syntax-ns#"
   xmlns:svg="http://www.w3.org/2000/svg"
   xmlns="http://www.w3.org/2000/svg"
   version="1.1"
   width="89.766998"
   height="84.954002"
   id="svg3478">
  <defs
     id="defs3480" />
  <metadata
     id="metadata3483">
    <rdf:RDF>
      <cc:Work
         rdf:about="">
        <dc:format>image/svg+xml</dc:format>
        <dc:type
           rdf:resource="http://purl.org/dc/dcmitype/StillImage" />
        <dc:title></dc:title>
      </cc:Work>
    </rdf:RDF>
  </metadata>
  <g
     transform="translate(-429.40221,-407.02804)"
     id="layer1">
    <g
       transform="translate(424.40221,399.02804)"
       id="g4894">
      <g
         id="g4872">
        <path
           d="M 70.354,53.264 H 7.099 C 5.939,53.264 5,52.324 5,51.165 5,50.006 5.939,49.066 7.099,49.066 h 63.255 c 5.408,0 9.808,-4.4 9.808,-9.808 0,-5.408 -4.399,-9.807 -9.808,-9.807 -2.65,0 -5.134,1.041 -6.993,2.931 -0.812,0.827 -2.142,0.838 -2.969,0.025 -0.826,-0.812 -0.838,-2.142 -0.024,-2.968 2.654,-2.7 6.201,-4.187 9.986,-4.187 7.723,0 14.006,6.283 14.006,14.005 0,7.724 -6.283,14.007 -14.006,14.007 z"
           id="path4874" />
      </g>
      <g
         id="g4876">
        <path
           d="M 67.173,63.187 H 7.099 C 5.939,63.187 5,62.247 5,61.088 5,59.929 5.939,58.989 7.099,58.989 h 60.074 c 12.9,0 23.396,-10.495 23.396,-23.396 0,-12.9 -10.495,-23.396 -23.396,-23.396 -6.323,0 -12.249,2.483 -16.683,6.993 -0.813,0.827 -2.142,0.838 -2.969,0.025 C 46.694,18.402 46.684,17.073 47.496,16.246 52.727,10.929 59.715,8 67.173,8 c 15.216,0 27.594,12.378 27.594,27.593 0,15.215 -12.378,27.594 -27.594,27.594 z"
           id="path4878" />
      </g>
      <g
         id="g4880">
        <path
           d="m 61.278,92.954 c -3.27,0 -6.333,-1.284 -8.626,-3.615 -0.812,-0.827 -0.801,-2.156 0.025,-2.969 0.826,-0.813 2.156,-0.802 2.968,0.025 1.497,1.522 3.498,2.361 5.633,2.361 4.356,0 7.899,-3.544 7.899,-7.899 0,-4.356 -3.543,-7.899 -7.899,-7.899 H 7.099 C 5.939,72.958 5,72.019 5,70.859 c 0,-1.16 0.939,-2.1 2.099,-2.1 h 54.179 c 6.671,0 12.098,5.427 12.098,12.098 0,6.67 -5.427,12.097 -12.098,12.097 z"
           id="path4882" />
      </g>
      <g
         id="g4884">
        <path
           d="M 48.021,43.251 H 7.099 C 5.939,43.251 5,42.311 5,41.152 5,39.993 5.939,39.053 7.099,39.053 H 48.02 c 3.038,0 5.511,-2.472 5.511,-5.511 0,-3.039 -2.473,-5.512 -5.511,-5.512 -1.49,0 -2.887,0.585 -3.931,1.647 -0.812,0.827 -2.142,0.838 -2.969,0.025 -0.826,-0.812 -0.838,-2.142 -0.024,-2.969 1.84,-1.871 4.298,-2.902 6.924,-2.902 5.354,0 9.708,4.355 9.708,9.709 10e-4,5.356 -4.354,9.711 -9.707,9.711 z"
           id="path4886" />
      </g>
    </g>
  </g>
</svg>
